<svg width="110" height="81" viewBox="0 0 110 81" fill="none" xmlns="http://www.w3.org/2000/svg">
<path d="M45.3025 2.62488C47.8362 0.357307 51.7828 0.356705 54.3168 2.62371L99.0291 42.6396C99.7841 43.3156 99.8212 44.4471 99.1122 45.1668C98.4027 45.8866 97.2142 45.922 96.4588 45.2459L51.749 5.23122C50.6593 4.25594 48.9613 4.25594 47.8716 5.23122L3.16174 45.2459C2.40637 45.922 1.21787 45.8866 0.508397 45.1668C-0.200632 44.4471 -0.163524 43.3156 0.591467 42.6396L45.3025 2.62488Z" fill="#4BCCE2"/>
<path d="M12.2927 73.9998V32.8H16.0455V73.9998C16.0456 75.4899 17.3135 76.6981 18.8772 76.6981H80.7471C82.3109 76.6981 83.5787 75.4899 83.5788 73.9998V32.8H87.3316V73.9998C87.3315 77.4648 84.3835 80.2741 80.7471 80.2741H18.8772C15.2408 80.2741 12.2928 77.4648 12.2927 73.9998Z" fill="#4BCCE2"/>
<path d="M53.5289 76.3208H69.9902V47.3753H53.5289V76.3208ZM73.743 76.4395C73.743 78.2891 72.2186 79.7996 70.3017 79.8921L70.1148 79.8968H53.4043L53.2174 79.8921C51.3005 79.7996 49.7761 78.2891 49.7761 76.4395V47.2566C49.7761 45.407 51.3005 43.8965 53.2174 43.804L53.4043 43.7993H70.1148C72.1184 43.7993 73.743 45.3474 73.743 47.2566V76.4395Z" fill="#4BCCE2"/>
<path d="M22.8591 32.4017C22.8591 31.9069 23.28 31.5059 23.7992 31.5059H31.098C31.6172 31.5059 32.0381 31.9069 32.0381 32.4017V38.8106C32.0381 39.3053 31.6172 39.7064 31.098 39.7064H23.7992C23.28 39.7064 22.8591 39.3053 22.8591 38.8106V32.4017Z" fill="#4BCCE2"/>
<path d="M34.3992 32.4017C34.3992 31.9069 34.8201 31.5059 35.3393 31.5059H42.638C43.1572 31.5059 43.5781 31.9069 43.5781 32.4017V38.8106C43.5781 39.3053 43.1572 39.7064 42.638 39.7064H35.3393C34.8201 39.7064 34.3992 39.3053 34.3992 38.8106V32.4017Z" fill="#4BCCE2"/>
<path d="M34.3992 42.7117C34.3992 42.217 34.8201 41.8159 35.3393 41.8159H42.638C43.1572 41.8159 43.5781 42.217 43.5781 42.7117V49.1207C43.5781 49.6154 43.1572 50.0165 42.638 50.0165H35.3393C34.8201 50.0165 34.3992 49.6154 34.3992 49.1206V42.7117Z" fill="#4BCCE2"/>
<path d="M22.8591 42.7117C22.8591 42.217 23.28 41.8159 23.7992 41.8159H31.098C31.6172 41.8159 32.0381 42.217 32.0381 42.7117V49.1207C32.0381 49.6154 31.6172 50.0165 31.098 50.0165H23.7992C23.28 50.0165 22.8591 49.6154 22.8591 49.1206V42.7117Z" fill="#4BCCE2"/>
<path d="M80.6848 42.5912C80.6848 40.7113 82.2842 39.1873 84.257 39.1873H106.138C108.111 39.1873 109.711 40.7112 109.711 42.5912V76.5244C109.711 78.4044 108.111 79.9284 106.138 79.9284H84.257C82.2842 79.9284 80.6848 78.4044 80.6848 76.5244V42.5912Z" fill="white"/>
<path d="M84.4376 76.3524H105.958V42.7633H84.4376V76.3524ZM109.711 76.5246L109.692 76.8727C109.509 78.589 107.988 79.9284 106.139 79.9284H84.2568C82.4074 79.9283 80.8862 78.589 80.7031 76.8727L80.6848 76.5246V42.591C80.6849 40.7112 82.2841 39.1874 84.2568 39.1873H106.139C108.111 39.1873 109.71 40.7111 109.711 42.591V76.5246Z" fill="#4BCCE2"/>
<path d="M84.9539 71.5479C84.9539 70.129 86.161 68.9788 87.6501 68.9788H102.746C104.236 68.9788 105.443 70.129 105.443 71.5479V73.03C105.443 74.4489 104.236 75.5992 102.746 75.5992H87.6501C86.161 75.5992 84.9539 74.4489 84.9539 73.03V71.5479Z" fill="#FFD35E"/>
<path d="M84.9539 52.7059C84.9539 51.287 86.161 50.1367 87.6501 50.1367H102.746C104.236 50.1367 105.443 51.287 105.443 52.7059V54.188C105.443 55.6069 104.236 56.7571 102.746 56.7571H87.6501C86.161 56.7571 84.9539 55.6069 84.9539 54.188V52.7059Z" fill="#FFD35E"/>
<path d="M84.9539 62.1268C84.9539 60.7079 86.161 59.5576 87.6501 59.5576H102.746C104.236 59.5576 105.443 60.7079 105.443 62.1268V63.6089C105.443 65.0278 104.236 66.178 102.746 66.178H87.6501C86.161 66.178 84.9539 65.0278 84.9539 63.6089V62.1268Z" fill="#FFD35E"/>
</svg>
