<svg width="165" height="164" viewBox="0 0 165 164" fill="none" xmlns="http://www.w3.org/2000/svg">
<circle cx="82.6823" cy="81.9418" r="81.9418" fill="#4BCCE2"/>
<path d="M82.8299 128.261C47.5892 108.756 43.2815 82.2019 46.0368 51.3907L46.3698 47.7244L49.995 47.5472C63.7716 46.8469 73.5858 43.6067 80.0038 37.6326L82.8299 35L85.6601 37.6326C92.0698 43.6067 101.892 46.8469 115.669 47.5472L119.29 47.7244L119.623 51.3907C122.395 82.358 117.929 108.811 82.8299 128.261ZM50.1989 51.762C47.9389 77.0253 50.0324 105.318 82.8216 123.455C115.619 105.314 117.742 77.0421 115.473 51.7747C100.685 51.0237 90.0012 47.4038 82.8424 40.7378C75.6835 47.4038 64.9827 51.011 50.1989 51.762Z" fill="white"/>
<path d="M96.2123 77.1455H82.6816V58.541L69.4446 86.1141H82.9753V104.719L96.2123 77.1455Z" fill="white" stroke="white" stroke-width="4.2112" stroke-linecap="round" stroke-linejoin="round"/>
</svg>
