<svg width="165" height="164" viewBox="0 0 165 164" fill="none" xmlns="http://www.w3.org/2000/svg">
<circle cx="82.6823" cy="81.9418" r="81.9418" fill="#4BCCE2"/>
<path d="M81.5569 73.1377H84.2678C84.7589 73.1377 85.171 73.5542 85.1711 74.0859V76.4717C85.1711 77.1516 85.6633 77.72 86.3118 77.8252C88.324 78.1507 90.0867 78.7665 91.6018 79.6689C91.95 79.8765 92.1011 80.3293 91.9592 80.7471L90.219 85.876C90.0282 86.4393 89.3922 86.6798 88.8772 86.4092C86.8957 85.3686 84.9937 84.8428 83.1731 84.8428C82.105 84.8428 81.2718 84.9994 80.6995 85.3379C80.111 85.686 79.8118 86.2193 79.8118 86.9111C79.8118 87.2455 79.9005 87.5473 80.0813 87.8096C80.261 88.0702 80.5249 88.282 80.8596 88.4492L80.8665 88.4521C81.5113 88.744 82.5587 89.0592 83.9983 89.4004L83.9993 89.4014C85.8467 89.8256 87.4005 90.3186 88.6614 90.8799L88.6653 90.8809C89.9049 91.405 90.9798 92.2759 91.8899 93.501L91.8909 93.5029C92.8077 94.7073 93.2776 96.3644 93.2776 98.4951C93.2776 100.838 92.5841 102.882 91.1975 104.635C89.9941 106.157 88.3245 107.228 86.179 107.843H86.178C85.5959 108.01 85.1711 108.546 85.1711 109.177V111.831C85.1711 112.363 84.759 112.78 84.2678 112.78H81.5569C81.0659 112.78 80.6545 112.363 80.6545 111.831V109.535C80.6545 108.833 80.1295 108.253 79.4543 108.175C78.0952 108.018 76.7808 107.725 75.511 107.297H75.512C74.2774 106.874 73.2121 106.375 72.3147 105.799C71.9818 105.585 71.8479 105.14 71.9944 104.733V104.732L73.8538 99.582C74.061 99.0094 74.7308 98.784 75.2532 99.085C75.9974 99.5132 76.7903 99.887 77.6301 100.206L77.9934 100.34L77.9963 100.341C79.4518 100.829 80.8537 101.075 82.1995 101.075C83.3405 101.075 84.1942 100.949 84.7258 100.67L84.7336 100.665C85.2768 100.348 85.5608 99.874 85.5608 99.2617C85.5608 98.9138 85.4696 98.601 85.2825 98.3311C85.0967 98.0632 84.8242 97.8484 84.4778 97.6816H84.4788C83.8327 97.3594 82.7705 97.0148 81.3079 96.6455H81.3088C79.4357 96.1644 77.8793 95.6561 76.6389 95.1221C75.4982 94.6041 74.4921 93.7936 73.6213 92.6855L73.4485 92.459C72.5531 91.2251 72.095 89.5522 72.095 87.4219C72.095 84.9652 72.8111 82.866 74.2405 81.1152L74.2415 81.1162C75.5279 79.567 77.3077 78.5134 79.594 77.9629C80.2017 77.8164 80.6544 77.2674 80.6545 76.6172V74.0859C80.6547 73.5543 81.066 73.1379 81.5569 73.1377Z" fill="white" stroke="white" stroke-width="0.389926"/>
<path fill-rule="evenodd" clip-rule="evenodd" d="M70.2974 38.6289H94.0643C100.152 38.6289 96.8087 48.1453 94.3441 53.95L91.5394 60.6069L91.1605 61.5048C93.8171 61.3705 96.4445 62.137 98.6473 63.6895C106.889 71.5462 113.577 81.0054 118.336 91.5352C120.191 95.4286 120.927 99.7979 120.455 104.117C119.888 115.125 111.412 123.898 100.843 124.414H63.5186C52.9468 123.913 44.4577 115.15 43.8794 104.14C43.4076 99.8208 44.1433 95.4515 45.9981 91.558C50.763 81.018 57.4608 71.5502 65.7142 63.6895C67.9175 62.137 70.5444 61.3705 73.2009 61.5048L72.7618 60.4697L70.0175 53.95C67.5639 48.1453 64.2047 38.6289 70.2974 38.6289Z" stroke="white" stroke-width="4.52314" stroke-linecap="round" stroke-linejoin="round"/>
<path d="M61.7036 58.9707L62.6759 59.2509C75.9861 63.0862 90.1217 62.9889 103.378 58.9707" stroke="white" stroke-width="4.52314" stroke-linecap="round"/>
</svg>
