<svg width="165" height="164" viewBox="0 0 165 164" fill="none" xmlns="http://www.w3.org/2000/svg">
<circle cx="82.6823" cy="81.9418" r="81.9418" fill="#4BCCE2"/>
<path d="M93.3461 108.097H71.3277C70.1882 108.097 69.2635 109.034 69.2635 110.189V115.768C69.2635 116.345 69.4946 116.87 69.869 117.249L75.3736 122.828C75.7451 123.205 76.2598 123.439 76.8295 123.439C76.8323 123.439 76.8323 123.439 76.835 123.439H87.8442C87.8442 123.439 87.847 123.439 87.8497 123.439C88.4194 123.439 88.9341 123.205 89.3084 122.828L94.813 117.249C95.1846 116.87 95.4158 116.348 95.4158 115.771C95.4158 115.768 95.4158 115.768 95.4158 115.765V110.186C95.4158 109.031 94.491 108.094 93.3516 108.094L93.3461 108.097ZM91.2818 114.9L86.9855 119.255H77.6855L73.3891 114.9V112.281H91.2791L91.2818 114.9ZM106.973 56.1327C101.941 47.4544 92.9828 41.5907 82.6369 41.0467L82.5626 41.0439H82.3782C72.0323 41.5042 63.0873 47.1866 58.0011 55.5413L57.9267 55.6724C54.8442 60.1664 53.0029 65.7399 53.0029 71.7486C53.0029 71.7654 53.0029 71.7793 53.0029 71.7961V71.7933C53.4845 77.9498 55.4524 83.5569 58.5405 88.3549L58.4579 88.2182C59.3359 89.7497 60.2662 91.2588 61.1992 92.768C63.0873 95.591 64.8901 98.8353 66.4286 102.23L66.602 102.657C66.924 103.419 67.6561 103.943 68.5066 103.943C68.5093 103.943 68.5148 103.943 68.5176 103.943C68.8011 103.943 69.0708 103.882 69.3157 103.776L69.302 103.781C70.0534 103.458 70.5708 102.716 70.5708 101.851C70.5708 101.561 70.513 101.285 70.4057 101.031L70.4112 101.045C68.6002 96.9886 66.6956 93.5463 64.535 90.2909L64.6974 90.5503C63.7891 89.0802 62.8836 87.6101 62.0249 86.1149C59.3222 82.031 57.5552 77.099 57.1341 71.7821L57.1286 71.6761C57.1699 66.5405 58.7552 61.7899 61.4387 57.8678L61.3864 57.9487C65.7983 50.6149 73.4717 45.683 82.3121 45.2283L82.3754 45.2255H82.5295C91.4883 45.7583 99.1672 50.8409 103.397 58.2109L103.464 58.3364C105.971 62.1609 107.463 66.8585 107.463 71.9076C107.463 72.075 107.46 72.2424 107.457 72.4098V72.3847C106.843 77.7518 105.027 82.5917 102.288 86.7565L102.363 86.6365C101.567 88.0034 100.733 89.3563 99.8993 90.7009C97.9617 93.6244 96.0708 96.997 94.4332 100.515L94.2323 100.992C94.125 101.234 94.0644 101.522 94.0644 101.82C94.0644 102.975 94.9892 103.912 96.1286 103.912C96.9681 103.912 97.6919 103.405 98.014 102.674L98.0195 102.66C99.7617 98.8827 101.556 95.6914 103.565 92.6592L103.4 92.9242C104.251 91.5462 105.104 90.1625 105.921 88.7622C108.921 84.1789 110.944 78.6863 111.564 72.7696L111.577 72.6106C111.586 72.3596 111.591 72.0639 111.591 71.7654C111.591 65.9436 109.865 60.5318 106.907 56.0239L106.97 56.1271L106.973 56.1327ZM78.7148 54.0991C78.3791 53.3682 77.6607 52.8717 76.8295 52.8717C76.524 52.8717 76.2323 52.9386 75.9708 53.0586L75.9846 53.053C69.6102 56.7966 65.0827 63.154 63.8084 70.644L63.7864 70.7946C63.7699 70.8978 63.7589 71.015 63.7589 71.1349C63.7589 72.1699 64.4992 73.0263 65.4708 73.1992L65.4818 73.202C65.5836 73.2187 65.6992 73.2299 65.8203 73.2299C65.8231 73.2299 65.8258 73.2299 65.8258 73.2299C66.8442 73.2299 67.6891 72.4823 67.857 71.4976L67.8598 71.4864C68.9524 65.2601 72.5772 60.0576 77.5919 56.9249L77.6827 56.8719C78.4038 56.5372 78.8993 55.8091 78.8993 54.9666C78.8993 54.6542 78.8304 54.3585 78.7121 54.0935L78.7176 54.1075L78.7148 54.0991ZM42.8827 45.1111L53.8919 50.6902C54.1616 50.8297 54.4781 50.9106 54.8139 50.9106C55.9533 50.9106 56.8781 49.9733 56.8781 48.8185C56.8781 48.0039 56.4185 47.2981 55.7469 46.9522L55.7359 46.9467L44.7267 41.3675C44.457 41.2281 44.1405 41.1472 43.8047 41.1472C42.6653 41.1472 41.7405 42.0845 41.7405 43.2393C41.7405 44.0539 42.2001 44.7596 42.8717 45.1055L42.8827 45.1111ZM109.86 50.9106C110.196 50.9106 110.518 50.8297 110.798 50.6847L110.787 50.6902L121.797 45.1111C122.479 44.7596 122.936 44.0539 122.936 43.2393C122.936 42.0845 122.011 41.1472 120.872 41.1472C120.536 41.1472 120.217 41.2281 119.936 41.3731L119.947 41.3675L108.938 46.9467C108.258 47.2981 107.801 48.0039 107.801 48.8157C107.801 49.9705 108.723 50.9078 109.863 50.9078L109.86 50.9106ZM121.794 97.1615L110.785 91.5824C110.518 91.4457 110.201 91.3648 109.868 91.3648C108.729 91.3648 107.807 92.3021 107.807 93.4542C107.807 94.2632 108.261 94.9662 108.924 95.3121L108.935 95.3176L119.944 100.897C120.211 101.036 120.528 101.12 120.864 101.12C120.866 101.12 120.866 101.12 120.869 101.12C122.008 101.12 122.933 100.183 122.933 99.0278C122.933 98.216 122.476 97.5102 121.808 97.1643L121.797 97.1588L121.794 97.1615ZM54.1864 91.5545L43.4166 96.6594C42.7065 96.9997 42.2249 97.7222 42.2249 98.5563C42.2249 99.7112 43.1497 100.648 44.2891 100.648C44.6056 100.648 44.9056 100.576 45.1753 100.448L45.1616 100.453L55.9313 95.3483C56.6469 95.008 57.1313 94.2855 57.1313 93.4486C57.1313 92.2938 56.2066 91.3565 55.0671 91.3565C54.7451 91.3565 54.4423 91.4318 54.1726 91.5629L54.1864 91.5545ZM43.8047 73.2271H46.557C47.6965 73.2271 48.6212 72.2898 48.6212 71.1349C48.6212 69.9801 47.6965 69.0428 46.557 69.0428H43.8047C42.6653 69.0428 41.7405 69.9801 41.7405 71.1349C41.7405 72.2898 42.6653 73.2271 43.8047 73.2271ZM120.869 69.0428H118.117C116.977 69.0428 116.053 69.9801 116.053 71.1349C116.053 72.2898 116.977 73.2271 118.117 73.2271H120.869C122.008 73.2271 122.933 72.2898 122.933 71.1349C122.933 69.9801 122.008 69.0428 120.869 69.0428Z" fill="white"/>
</svg>
